#!OML:ASF F:\VICON\USERDATA\INSTALL\rory3\rory3.ASF
:FULLY-SPECIFIED
:DEGREES
278
root 1.12557 17.9908 18.4577 -10.4853 -0.268322 2.22426
lowerback 16.9612 -0.188427 -3.13815
upperback 1.19158 -0.697081 1.72939
thorax -8.18254 -0.189531 3.81652
lowerneck -9.78854 0.0396512 -1.81989
upperneck 29.3156 1.06956 -2.15818
head 11.0821 0.0275441 -0.339956
rclavicle 7.85199e-015 -1.27222e-014
rhumerus -34.217 -11.6702 -76.7071
rradius 28.5402
rwrist 3.69498
rhand -13.4328 11.8444
rfingers 7.12502
rthumb 12.676 -17.7509
lclavicle 7.85199e-015 -1.27222e-014
lhumerus -39.5275 3.17886 86.8538
lradius 38.0135
lwrist 4.69916
lhand -11.7315 51.9047
lfingers 7.12502
lthumb 14.3157 81.3912
rfemur -16.4189 -4.55424 18.1933
rtibia 75.6793
rfoot 1.91568 -11.2796
rtoes 9.66333
lfemur -3.42322 -3.87119 -28.6462
ltibia 29.1033
lfoot -10.3441 2.21376
ltoes -0.984704
279
root 1.12459 17.9793 18.6012 -10.5631 0.0454864 2.55655
lowerback 16.9898 -0.242186 -3.55709
upperback 1.27639 -0.85572 1.64216
thorax -8.08737 -0.256497 3.99779
lowerneck -9.77912 0.0724204 -1.75277
upperneck 29.3216 1.09802 -2.14669
head 11.0824 0.0491228 -0.343961
rclavicle -2.8948e-015 -5.56597e-015
rhumerus -34.4546 -11.6896 -76.8746
rradius 28.9686
rwrist 2.77522
rhand -13.8604 12.9945
rfingers 7.12502
rthumb 12.2637 -16.6259
lclavicle -2.8948e-015 -5.56597e-015
lhumerus -39.2977 2.84256 86.8783
lradius 38.3073
lwrist 4.93047
lhand -11.7452 51.9883
lfingers 7.12502
lthumb 14.3026 81.4757
rfemur -17.4181 -4.9683 17.7545
rtibia 75.4132
rfoot 0.733786 -10.9097
rtoes 10.1246
lfemur -2.84597 -3.8076 -29.081
ltibia 29.1719
lfoot -10.869 1.9652
ltoes -1.08074
280
root 1.12645 17.9667 18.7498 -10.7215 0.474581 2.85023
lowerback 17.0179 -0.358984 -3.86125
upperback 1.35685 -1.07653 1.54405
thorax -7.99083 -0.358291 4.11585
lowerneck -9.46256 0.0939064 -1.82261
upperneck 29.1709 1.09486 -2.02839
head 10.9599 0.0583151 -0.288555
rclavicle -1.63656e-014 2.54444e-014
rhumerus -34.5801 -11.6548 -76.9963
rradius 29.0724
rwrist 2.09863
rhand -14.1816 13.9519
rfingers 7.12502
rthumb 11.954 -15.6868
lclavicle -1.63656e-014 2.54444e-014
lhumerus -39.0857 2.40148 86.9404
lradius 38.4788
lwrist 5.33344
lhand -12.0672 51.7751
lfingers 7.12502
lthumb 13.9922 81.2842
rfemur -18.1447 -5.47242 17.3046
rtibia 74.9504
rfoot -0.803456 -10.271
rtoes 8.34419
lfemur -2.09631 -3.821 -29.514
ltibia 29.1683
lfoot -11.3957 1.79747
ltoes -1.5111
281
root 1.11788 17.9575 18.861 -10.5055 0.594755 2.17305
lowerback 17.1702 -0.506911 -3.32457
upperback 1.30533 -1.15498 1.77432
thorax -8.12921 -0.405936 4.08258
lowerneck -9.52677 0.0899432 -1.8122
upperneck 29.1236 1.09239 -2.04734
head 10.9549 0.0561171 -0.297293
rclavicle -1.86889e-014 -8.74653e-015
rhumerus -34.5717 -11.6507 -77.1103
rradius 29.2487
rwrist 1.49013
rhand -14.1766 13.5217
rfingers 7.12502
rthumb 11.9588 -16.1167
lclavicle -1.86889e-014 -8.74653e-015
lhumerus -38.683 1.87023 87.0479
lradius 38.6151
lwrist 5.79193
lhand -12.3789 51.9059
lfingers 7.12502
lthumb 13.6918 81.4355
rfemur -19.5336 -5.60709 18.3074
rtibia 74.2757
rfoot -1.78223 -10.1193
rtoes 6.92135
lfemur -2.11586 -3.8187 -28.71
ltibia 29.3601
lfoot -11.7379 1.55231
ltoes -1.80161
282
root 1.11465 17.9372 18.9983 -10.5576 1.02046 2.95726
lowerback 17.3206 -0.556651 -4.23278
upperback 1.36785 -1.41652 1.58707
thorax -8.10291 -0.505202 4.46369
lowerneck -9.75941 0.123289 -1.73697
upperneck 29.1733 1.15682 -2.13512
head 11.0217 0.0804614 -0.33463
rclavicle 5.87968e-015 -1.35174e-014
rhumerus -34.7363 -11.5598 -77.279
rradius 29.6952
rwrist 1.0321
rhand -14.0457 12.0916
rfingers 7.12502
rthumb 12.0851 -17.5394
lclavicle 5.87968e-015 -1.35174e-014
lhumerus -38.4235 1.57619 87.026
lradius 38.8486
lwrist 5.94308
lhand -12.3569 51.8862
lfingers 7.12502
lthumb 13.713 81.4144
rfemur -20.4363 -6.00535 17.3715
rtibia 73.5679
rfoot -2.65784 -9.61727
rtoes 6.5264
lfemur -1.57638 -3.85376 -29.6577
ltibia 29.4348
lfoot -12.1849 1.43843
ltoes -1.17165
283
root 1.10034 17.9277 19.1298 -10.5443 1.23315 2.81222
lowerback 17.5022 -0.623015 -4.31906
upperback 1.38204 -1.51896 1.69041
thorax -8.17189 -0.547516 4.65576
lowerneck -9.80286 0.132957 -1.73555
upperneck 29.1678 1.1822 -2.17304
head 11.0289 0.0873286 -0.345535
rclavicle 3.38555e-015 -5.56597e-015
rhumerus -34.8678 -11.5927 -77.3485
rradius 29.907
rwrist 0.853316
rhand -13.99 11.1561
rfingers 7.12502
rthumb 12.1388 -18.4717
lclavicle 3.38555e-015 -5.56597e-015
lhumerus -38.2407 1.15762 87.0735
lradius 39.1667
lwrist 6.0293
lhand -12.2841 51.7642
lfingers 7.12502
lthumb 13.7833 81.2876
rfemur -21.3702 -6.09724 17.7194
rtibia 72.5529
rfoot -3.43226 -9.53351
rtoes 5.80787
lfemur -1.17006 -3.95532 -29.5024
ltibia 29.5099
lfoot -12.5822 1.34486
ltoes -0.631202
284
root 1.10301 17.919 19.2613 -10.3681 1.79267 3.19161
lowerback 17.4933 -0.734002 -4.64945
upperback 1.30902 -1.74162 1.5667
thorax -8.21639 -0.642228 4.76431
lowerneck -9.5319 0.123243 -1.62504
upperneck 29.015 1.15783 -2.26159
head 10.917 0.0821716 -0.398916
rclavicle 1.85708e-014 -3.18055e-015
rhumerus -35.1384 -11.7985 -77.2801
rradius 29.8841
rwrist 0.762104
rhand -14.0183 11.1853
rfingers 7.12502
rthumb 12.1114 -18.4442
lclavicle 1.85708e-014 -3.18055e-015
lhumerus -38.1031 0.628782 87.1425
lradius 39.5485
lwrist 6.03172
lhand -12.3344 51.8348
lfingers 7.12502
lthumb 13.7347 81.3615
rfemur -22.2781 -6.58034 17.2212
rtibia 71.403
rfoot -4.25409 -9.13391
rtoes 6.30963
lfemur -0.732577 -4.15518 -30.0228
ltibia 29.3202
lfoot -12.8347 1.13909
ltoes -0.0788925
285
root 1.10494 17.9092 19.4068 -10.4535 2.17617 3.63915
lowerback 17.5454 -0.784527 -5.06858
upperback 1.33211 -1.90579 1.41517
thorax -8.19304 -0.710365 4.87901
lowerneck -9.39478 0.087517 -1.54638
upperneck 29.003 1.09918 -2.31075
head 10.8851 0.0592522 -0.437309
rclavicle -1.61637e-014 7.95139e-015
rhumerus -35.4514 -12.1806 -77.0993
rradius 29.5811
rwrist 1.1139
rhand -14.0461 11.2402
rfingers 7.12502
rthumb 12.0847 -18.3908
lclavicle -1.61637e-014 7.95139e-015
lhumerus -37.9417 0.225128 87.1247
lradius 39.747
lwrist 5.96108
lhand -12.5467 51.458
lfingers 7.12502
lthumb 13.5301 80.9984
rfemur -22.7653 -6.92596 16.6438
rtibia 70.0178
rfoot -5.13084 -8.80067
rtoes 5.25342
lfemur 0.0213272 -4.11422 -30.6087
ltibia 29.2001
lfoot -13.2291 1.04923
ltoes -0.63861
286
root 1.1016 17.8993 19.5454 -10.3834 2.39231 3.76184
lowerback 17.4115 -0.855411 -5.24919
upperback 1.43413 -2.0287 1.37931
thorax -7.98793 -0.774084 4.9633
lowerneck -9.481 0.061441 -1.5116
upperneck 28.8862 1.06465 -2.35144
head 10.8582 0.0432132 -0.461454
rclavicle 6.65929e-015 9.54166e-015
rhumerus -35.371 -12.4462 -77.1394
rradius 29.3774
rwrist 1.4143
rhand -14.0787 11.4518
rfingers 7.12502
rthumb 12.0533 -18.1811
lclavicle 6.65929e-015 9.54166e-015
lhumerus -37.4333 -0.235035 87.1161
lradius 39.7651
lwrist 6.10077
lhand -13.1191 50.9445
lfingers 7.12502
lthumb 12.9784 80.5208
rfemur -23.4092 -7.02857 16.5739
rtibia 68.426
rfoot -6.01036 -8.68678
rtoes 4.06476
lfemur 0.584078 -4.10109 -30.7693
ltibia 28.959
lfoot -13.5214 0.948749
ltoes -0.953931
287
root 1.09275 17.8982 19.6766 -10.2805 2.4443 3.64921
lowerback 17.1702 -0.906993 -5.30973
upperback 1.65159 -2.08308 1.47338
thorax -7.60507 -0.816739 5.09585
lowerneck -9.6338 0.0718338 -1.5388
upperneck 28.615 1.07989 -2.34508
head 10.786 0.0505467 -0.450871
rclavicle -1.99903e-014 1.66979e-014
rhumerus -35.1709 -12.0287 -77.5239
rradius 29.8243
rwrist 0.878556
rhand -14.054 11.664
rfingers 7.12502
rthumb 12.077 -17.9674
lclavicle -1.99903e-014 1.66979e-014
lhumerus -36.6169 -0.552356 87.1209
lradius 39.729
lwrist 6.09837
lhand -13.8602 50.4105
lfingers 7.12502
lthumb 12.2639 80.031
rfemur -24.0785 -6.89661 16.876
rtibia 66.6896
rfoot -6.69263 -8.87331
rtoes 3.2243
lfemur 1.08599 -4.00664 -30.6095
ltibia 28.6502
lfoot -13.7979 0.866981
ltoes -0.996274
288
root 1.08185 17.9018 19.8195 -10.4043 2.41443 3.57064
lowerback 17.7082 -0.881692 -5.4083
upperback 1.41795 -2.09372 1.57368
thorax -8.14847 -0.789464 5.29519
lowerneck -9.35456 0.102426 -1.62259
upperneck 28.7587 1.11496 -2.2706
head 10.7842 0.0660988 -0.406315
rclavicle 2.01642e-014 -1.90833e-014
rhumerus -36.0159 -11.5323 -77.5802
rradius 30.4675
rwrist 0.573473
rhand -13.9114 11.5812
rfingers 7.12502
rthumb 12.2146 -18.0422
lclavicle 2.01642e-014 -1.90833e-014
lhumerus -36.7686 -0.864431 87.1854
lradius 39.8099
lwrist 6.15693
lhand -14.0824 50.1818
lfingers 7.12502
lthumb 12.0496 79.8149
rfemur -24.3624 -6.62042 17.1159
rtibia 64.7221
rfoot -7.20849 -9.15186
rtoes 2.0323
lfemur 1.84962 -3.88499 -30.5049
ltibia 28.463
lfoot -14.1275 0.918577
ltoes -0.552974
289
root 1.09634 17.8785 19.9485 -10.0597 3.01938 4.53152
lowerback 17.5107 -0.970819 -6.10179
upperback 1.42601 -2.36357 1.25432
thorax -7.98206 -0.908303 5.39643
lowerneck -9.45154 0.0802253 -1.72036
upperneck 28.667 1.05472 -2.09604
head 10.7668 0.0493735 -0.333019
rclavicle 1.80149e-015 -5.56597e-015
rhumerus -36.0814 -11.5671 -77.678
rradius 30.6134
rwrist 0.683575
rhand -14.0162 11.9274
rfingers 7.12502
rthumb 12.1135 -17.7019
lclavicle 1.80149e-015 -5.56597e-015
lhumerus -36.2074 -1.33492 87.198
lradius 39.8821
lwrist 6.23578
lhand -14.2524 49.9941
lfingers 7.12502
lthumb 11.8857 79.6367
rfemur -25.1095 -7.15864 15.8903
rtibia 62.8074
rfoot -7.65198 -9.05117
rtoes 0.944306
lfemur 2.20477 -4.07315 -31.6981
ltibia 28.2269
lfoot -14.3356 0.856835
ltoes -0.118697
